{"title":"Jack Taylor S01E04 The Dramatist x264 RB58.mp4","uid":10269508,"size":718281336,"categoryP":"video","categoryS":"tv_shows","magnet":"?xt=urn:btih:0532a420bdb1e9a2838ac25b03a4e60e4cb42b69&amp;dn=Jack+Taylor+S01E04+The+Dramatist+x264+RB58.mp4&amp;tr=udp%3A%2F%2Ftracker.openbittorrent.com%3A80&amp;tr=udp%3A%2F%2Fopen.demonii.com%3A1337&amp;tr=udp%3A%2F%2Ftracker.coppersurfer.tk%3A6969&amp;tr=udp%3A%2F%2Fexodus.desync.com%3A6969","seeders":11,"leechers":2,"uploader":"RedBaron58","files":1,"time":1401562130,"description":"Jack Taylor S01E04 The Dramatist x264 mp4\n &lt;a href=&quot;\nhttp://www.imdb.com/title/tt2447090/&quot; rel=&quot;nofollow&quot; target=&quot;_NEW&quot;&gt;\nhttp://www.imdb.com/title/tt2447090/&lt;/a&gt;\n\n\nThank you for your kind comments and thumbs ups on my other torrents, your feedback is welcome.\n\nBefore you ask I will be doing all 6 episodes which are available to date. The 6th episode will not\nbe up until 5th of June.\n\nAbout the Episode:\nSeven months after his mother's stroke, and continuing on his path of sobriety and healthier living, \nJack is called on to investigate the death of a female university student, who falls from a roof while \ndressed in theatre costume. A ring of paper around her wrist contains an apparent suicide note written \nin her blood.\n\n\nI hope you enjoy.\n\n\nTechnical:\n\nGeneral\nComplete name                            : G:Jack Taylor S01E04 The Dramatist x264 RB58.mp4\nFormat                                   : MPEG-4\nFormat profile                           : Base Media / Version 2\nCodec ID                                 : mp42\nFile size                                : 685 MiB\nDuration                                 : 1h 29mn\nOverall bit rate mode                    : Variable\nOverall bit rate                         : 1 064 Kbps\nEncoded date                             : UTC 2014-05-28 21:12:37\nTagged date                              : UTC 2014-05-28 21:35:10\nWriting application                      : HandBrake 0.9.8 2012071700\n\nVideo\nID                                       : 1\nFormat                                   : AVC\nFormat/Info                              : Advanced Video Codec\nFormat profile                           : &lt;a class=&quot;__cf_email__&quot; href=&quot;/cdn-cgi/l/email-protection&quot; data-cfemail=&quot;4d002c24230d017e637d&quot;&gt;[email&amp;#160;protected]&lt;/a&gt;&lt;script cf-hash='f9e31' type=&quot;text/javascript&quot;&gt;\n/* &lt;![CDATA[ */!function(){try{var t=&quot;currentScript&quot;in document?document.currentScript:function(){for(var t=document.getElementsByTagName(&quot;script&quot;),e=t.length;e--;)if(t[e].getAttribute(&quot;cf-hash&quot;))return t[e]}();if(t&amp;&amp;t.previousSibling){var e,r,n,i,c=t.previousSibling,a=c.getAttribute(&quot;data-cfemail&quot;);if(a){for(e=&quot;&quot;,r=parseInt(a.substr(0,2),16),n=2;a.length-n;n+=2)i=parseInt(a.substr(n,2),16)^r,e+=String.fromCharCode(i);e=document.createTextNode(e),c.parentNode.replaceChild(e,c)}}}catch(u){}}();/* ]]&gt; */&lt;/script&gt;\nFormat settings, CABAC                   : Yes\nFormat settings, ReFrames                : 4 frames\nCodec ID                                 : avc1\nCodec ID/Info                            : Advanced Video Coding\nDuration                                 : 1h 29mn\nBit rate mode                            : Variable\nBit rate                                 : 900 Kbps\nWidth                                    : 720 pixels\nHeight                                   : 576 pixels\nDisplay aspect ratio                     : 16:9\nFrame rate mode                          : Constant\nFrame rate                               : 25.000 fps\nStandard                                 : PAL\nColor space                              : YUV\nChroma subsampling                       : 4:2:0\nBit depth                                : 8 bits\nScan type                                : Progressive\nBits/(Pixel*Frame)                       : 0.087\nStream size                              : 579 MiB (85%)\nWriting library                          : x264 core 120\nEncoding settings                        : cabac=1 / ref=1 / deblock=1:0:0 \nEncoded date                             : UTC 2014-05-28 21:12:37\nTagged date                              : UTC 2014-05-28 21:35:10\nColor primaries                          : BT.601 NTSC\nTransfer characteristics                 : BT.709\nMatrix coefficients                      : BT.601\n\nAudio\nID                                       : 2\nFormat                                   : AAC\nFormat/Info                              : Advanced Audio Codec\nFormat profile                           : LC\nCodec ID                                 : 40\nDuration                                 : 1h 29mn\nBit rate mode                            : Variable\nBit rate                                 : 160 Kbps\nMaximum bit rate                         : 191 Kbps\nChannel(s)                               : 2 channels\nChannel positions                        : Front: L R\nSampling rate                            : 48.0 KHz\nCompression mode                         : Lossy\nDelay relative to video                  : 80ms\nStream size                              : 103 MiB (15%)\nLanguage                                 : English\nEncoded date                             : UTC 2014-05-28 21:12:37\nTagged date                              : UTC 2014-05-28 21:35:08","torrent":{"xt":"urn:btih:0532a420bdb1e9a2838ac25b03a4e60e4cb42b69","amp;dn":"Jack+Taylor+S01E04+The+Dramatist+x264+RB58.mp4","amp;tr":["udp%3A%2F%2Ftracker.openbittorrent.com%3A80","udp%3A%2F%2Fopen.demonii.com%3A1337","udp%3A%2F%2Ftracker.coppersurfer.tk%3A6969","udp%3A%2F%2Fexodus.desync.com%3A6969"],"infoHash":"0532a420bdb1e9a2838ac25b03a4e60e4cb42b69","infoHashBuffer":{"type":"Buffer","data":[5,50,164,32,189,177,233,162,131,138,194,91,3,164,230,14,76,180,43,105]},"announce":[],"urlList":[]}}